<svg width="142" height="24" viewBox="0 0 142 24" fill="none" xmlns="http://www.w3.org/2000/svg">
  <defs>
    <style><![CDATA[@import url('https://fonts.googleapis.com/css2?family=Work+Sans:wght@700&display=swap');]]></style>
  </defs>

  <path fill-rule="evenodd" clip-rule="evenodd" d="M4.5 5A3.5 3.5 0 1 0 11.5 5A3.5 3.5 0 1 0 4.5 5ZM6.3 5A1.7 1.7 0 1 0 9.7 5A1.7 1.7 0 1 0 6.3 5ZM13 3.5A3 3 0 1 0 19 3.5A3 3 0 1 0 13 3.5ZM14.6 3.5A1.4 1.4 0 1 0 17.4 3.5A1.4 1.4 0 1 0 14.6 3.5ZM4 12H17Q19 12 19 14V21Q19 23 17 23H4Q2 23 2 21V14Q2 12 4 12ZM19 14.5C23.5 14.5 23.5 21.5 19 21.5L19 20C21.5 20 21.5 16 19 16Z" fill="#D0D8FF"/>

  <text
    x="31"
    y="12"
    font-family="'Work Sans', sans-serif"
    font-weight="700"
    font-size="19"
    fill="#D0D8FF"
    alignment-baseline="middle"
  >
    CupO&apos;Coins
  </text>
</svg>
